<?xml version="1.0" standalone="no"?>
<!DOCTYPE svg PUBLIC "-//W3C//DTD SVG 20010904//EN"
 "http://www.w3.org/TR/2001/REC-SVG-20010904/DTD/svg10.dtd">
<svg version="1.0" xmlns="http://www.w3.org/2000/svg"
 width="256.000000pt" height="256.000000pt" viewBox="0 0 256.000000 256.000000"
 preserveAspectRatio="xMidYMid meet">
<metadata>
Created by potrace 1.11, written by Peter Selinger 2001-2013
</metadata>
<g transform="translate(0.000000,256.000000) scale(0.100000,-0.100000)"
fill="#000000" stroke="none">
<path d="M1237 2411 c-26 -3 -47 -9 -47 -13 0 -5 0 -15 0 -23 0 -8 6 -15 14
-15 11 0 14 -10 12 -37 -2 -24 -7 -37 -15 -35 -7 1 -15 -6 -18 -16 -5 -22 -73
-26 -73 -4 0 8 -9 16 -20 19 -23 6 -25 14 -8 31 10 10 10 15 -1 21 -7 5 -10
14 -7 20 4 6 11 9 16 6 5 -3 11 -1 15 5 24 39 -160 -51 -228 -112 l-49 -43 26
-25 27 -24 -3 33 c-3 29 1 35 26 44 24 8 32 7 43 -9 12 -17 13 -17 13 0 0 14
7 17 37 14 33 -3 39 -7 44 -33 4 -16 7 -25 8 -19 0 5 7 18 14 28 13 17 15 17
45 2 36 -18 36 -19 21 -47 -9 -18 -8 -19 10 -7 17 10 23 9 40 -6 25 -23 26
-34 4 -58 -15 -17 -15 -18 15 -12 28 6 33 3 42 -22 14 -35 6 -54 -20 -54 -12
0 -18 -4 -15 -10 3 -5 15 -10 26 -10 14 0 19 -7 19 -27 0 -38 -14 -57 -35 -49
-9 3 -3 -8 13 -24 38 -38 46 -38 62 1 11 25 11 35 1 51 -11 18 -10 24 8 41 20
20 21 20 40 3 29 -26 81 -13 81 19 0 30 8 35 43 28 21 -4 27 -11 27 -32 0 -36
43 -57 73 -36 18 13 23 13 39 -2 22 -20 23 -31 2 -54 -14 -15 -14 -21 -2 -46
7 -16 23 -29 36 -31 17 -3 22 -10 22 -33 0 -25 -4 -29 -29 -29 -38 0 -60 -45
-39 -80 12 -19 10 -23 -11 -41 -24 -20 -25 -20 -44 0 -27 27 -77 11 -77 -25 0
-21 -5 -24 -35 -24 -32 0 -35 3 -35 28 0 39 -42 60 -75 38 -21 -14 -24 -13
-39 3 -20 22 -20 30 0 52 14 15 14 21 2 46 -7 16 -23 29 -36 31 -12 2 -22 9
-22 16 0 6 -8 12 -17 12 -10 1 -26 5 -37 9 -18 8 -18 7 -2 -17 16 -25 16 -27
-10 -47 -15 -12 -34 -19 -41 -17 -7 3 -13 -1 -13 -8 0 -20 -61 -40 -72 -24 -4
7 -8 19 -8 26 0 6 -4 12 -10 12 -5 0 -10 -11 -10 -24 0 -31 -7 -35 -47 -29
-25 4 -33 10 -33 26 0 19 -1 19 -12 4 -11 -14 -17 -15 -38 -4 -20 11 -24 20
-22 47 2 32 2 33 -16 17 -26 -24 -47 -21 -67 10 -17 25 -17 27 6 45 l24 19
-27 -7 c-24 -5 -29 -2 -38 22 -13 33 -7 54 17 55 12 1 9 3 -7 8 -20 5 -26 14
-28 44 -3 37 -3 37 35 37 l38 1 -27 15 c-32 17 -32 17 -17 47 10 22 10 22 -7
2 -27 -33 -92 -176 -109 -240 -9 -33 -18 -104 -22 -157 -6 -96 -6 -98 16 -98
27 0 38 26 22 52 -16 25 3 51 30 43 32 -10 59 4 59 31 0 30 39 34 47 4 7 -25
36 -34 62 -19 26 17 58 -5 40 -28 -17 -19 4 -63 30 -63 11 0 21 -7 23 -16 3
-14 7 -13 31 6 l28 22 28 -26 c26 -25 29 -26 67 -13 33 12 40 19 44 48 5 33 6
34 50 34 l45 0 3 -40 c3 -36 8 -42 43 -58 38 -18 39 -18 70 4 l32 23 23 -30
c30 -36 30 -45 0 -71 -22 -19 -23 -24 -13 -55 18 -50 26 -58 58 -58 35 0 41
-12 31 -60 -8 -32 -11 -35 -40 -32 -27 2 -36 -4 -58 -38 l-26 -39 21 -27 c27
-35 26 -44 -11 -73 l-31 -25 -24 28 c-23 27 -26 28 -64 17 -22 -7 -42 -17 -44
-24 -2 -7 -6 -25 -9 -40 -6 -26 -10 -28 -49 -25 -42 3 -42 3 -45 44 -3 37 -7
43 -43 59 -39 18 -40 18 -71 -5 l-32 -23 -28 33 -28 34 26 27 c25 27 26 29 13
71 -12 38 -18 44 -49 48 -39 6 -48 27 -31 73 9 22 14 25 43 21 31 -5 34 -3 54
38 18 40 19 45 4 73 -11 22 -21 29 -37 27 -26 -4 -39 -37 -23 -57 20 -24 4
-47 -27 -41 -33 7 -49 -2 -54 -29 -5 -24 -49 -34 -49 -11 0 26 -38 40 -66 25
-33 -17 -55 2 -37 31 10 15 9 23 -5 39 -10 13 -22 18 -29 13 -9 -6 -9 -21 3
-67 31 -117 84 -211 198 -350 13 -16 53 -85 88 -151 51 -98 66 -119 76 -108
15 16 16 46 2 60 -15 15 -2 44 16 37 19 -7 44 14 44 37 0 23 29 35 36 15 7
-17 54 -21 54 -4 0 16 35 6 36 -11 2 -26 16 -50 29 -50 7 0 20 11 29 25 15 23
23 25 89 25 77 0 97 -9 97 -45 0 -24 33 -47 55 -39 8 3 15 13 15 21 0 8 7 13
18 11 9 -2 17 -9 17 -16 0 -18 27 -33 47 -26 21 6 33 -13 18 -31 -9 -11 -7
-18 9 -34 27 -27 26 -37 0 -44 -18 -5 -21 -11 -16 -36 6 -31 -11 -49 -30 -30
-13 13 -43 1 -43 -17 0 -8 -9 -14 -20 -14 -13 0 -20 7 -20 19 0 20 -36 36 -46
20 -3 -6 -11 -6 -19 1 -11 9 -12 16 -2 31 10 17 8 23 -12 38 -24 18 -22 41 4
41 16 0 26 25 19 44 -5 12 -56 14 -191 7 -18 -1 -16 -28 2 -39 20 -11 8 -45
-13 -37 -19 7 -42 -12 -42 -36 0 -26 -21 -35 -35 -16 -15 21 -51 22 -59 2 -8
-21 -36 -7 -36 19 0 29 -17 45 -40 39 -15 -4 -17 -10 -10 -28 5 -13 12 -52 16
-87 3 -34 12 -78 20 -95 l13 -33 75 0 75 0 3 95 c2 52 7 96 12 98 5 1 8 -42 7
-95 l-2 -98 115 0 115 0 3 53 c4 67 22 67 26 -1 l3 -52 64 0 c77 0 89 13 99
101 16 151 100 355 186 453 97 111 152 210 186 337 24 88 24 280 1 369 -28
105 -100 242 -163 308 -31 31 -53 52 -50 45 4 -6 2 -14 -4 -18 -18 -11 -11
-47 10 -52 13 -3 20 -14 20 -29 0 -15 -5 -22 -13 -18 -20 7 -40 -22 -33 -50 7
-30 -16 -53 -33 -32 -15 18 -49 9 -56 -15 -9 -27 -43 -24 -47 4 -2 18 -9 22
-42 22 -40 0 -60 20 -36 35 17 11 3 48 -21 55 -26 9 -20 39 8 43 26 4 40 37
24 56 -17 20 13 43 34 26 19 -16 52 -4 58 21 7 26 42 22 42 -4 0 -22 27 -39
49 -31 25 10 19 20 -33 58 -131 96 -328 148 -484 127z m163 -31 c0 -23 43 -38
64 -21 21 18 44 -14 28 -40 -16 -25 1 -59 28 -59 15 0 20 -7 20 -25 0 -18 -5
-25 -20 -25 -26 0 -44 -34 -31 -59 8 -14 6 -22 -8 -35 -16 -14 -20 -15 -30 -2
-16 19 -40 9 -52 -21 -12 -31 -52 -29 -57 3 -4 25 -40 38 -59 22 -21 -17 -51
15 -34 36 16 20 5 56 -18 56 -10 0 -20 3 -23 6 -10 10 4 44 18 44 21 0 41 47
26 62 -17 17 16 52 34 37 21 -17 64 -2 64 21 0 15 7 20 25 20 18 0 25 -5 25
-20z m450 -400 c11 -20 50 -28 50 -10 0 14 23 13 38 -2 8 -8 9 -15 1 -25 -14
-16 5 -43 31 -43 25 0 34 -41 10 -47 -23 -6 -32 -39 -14 -54 10 -8 11 -16 3
-31 -8 -15 -13 -17 -24 -8 -19 16 -55 -4 -55 -30 0 -13 -7 -20 -20 -20 -11 0
-20 6 -20 14 0 21 -43 29 -57 9 -17 -23 -45 1 -37 31 6 24 -15 49 -37 44 -23
-5 -23 39 0 45 22 5 28 36 11 53 -19 19 -1 45 26 38 27 -7 58 12 50 32 -11 29
28 33 44 4z m-124 -304 c8 -33 52 -41 80 -15 20 19 21 19 39 -1 14 -16 15 -22
5 -35 -18 -21 12 -65 45 -65 15 0 26 -7 30 -20 8 -25 -1 -40 -24 -40 -28 0
-34 -50 -10 -76 19 -20 19 -21 -1 -39 -16 -14 -23 -15 -34 -6 -21 17 -66 -13
-66 -44 0 -15 -8 -26 -21 -30 -21 -7 -39 7 -39 31 0 7 -14 14 -31 16 -22 3
-34 -1 -44 -14 -11 -17 -16 -18 -34 -6 -23 14 -27 28 -10 45 18 18 -19 66 -47
59 -18 -5 -23 -1 -29 21 -6 26 6 43 31 43 7 0 14 12 17 28 4 20 0 31 -14 43
-20 15 -20 15 -1 39 17 21 22 22 36 11 23 -19 70 12 63 40 -4 14 1 23 16 29
33 13 36 12 43 -14z m-109 -396 c5 -18 7 -19 17 -4 11 14 16 12 49 -17 27 -23
34 -36 26 -45 -7 -9 -5 -12 8 -10 21 1 30 -33 11 -45 -10 -7 -10 -9 0 -9 9 0
12 -12 8 -39 -5 -49 -12 -62 -31 -54 -11 4 -13 1 -9 -10 4 -11 -5 -23 -28 -37
-41 -25 -58 -25 -59 -2 -1 16 -2 16 -6 0 -5 -21 -27 -23 -71 -7 -18 6 -29 16
-26 23 3 8 -4 12 -18 12 -17 -1 -23 4 -22 21 0 12 -4 21 -10 20 -15 -3 -20 35
-4 44 10 7 9 9 -4 9 -20 0 -25 34 -8 45 6 4 8 10 5 15 -3 5 3 18 14 29 11 11
17 21 15 24 -2 2 2 10 11 17 12 10 18 10 31 -1 14 -11 15 -10 12 6 -2 15 5 21
27 26 50 11 57 10 62 -11z m-271 -515 c4 -9 14 -14 23 -13 11 2 15 -4 14 -19
-2 -13 2 -23 7 -23 6 0 10 -7 10 -15 0 -8 -4 -15 -9 -15 -5 0 -11 -9 -14 -20
-3 -13 -10 -18 -21 -14 -9 3 -16 1 -16 -5 0 -6 -7 -11 -15 -11 -8 0 -15 5 -15
10 0 6 -9 10 -21 10 -12 0 -19 5 -16 13 2 6 -2 20 -11 29 -13 16 -13 18 2 24
9 3 16 15 16 26 0 14 5 18 15 14 9 -3 18 1 21 9 8 19 23 19 30 0z"/>
<path d="M1319 2291 c-26 -27 -30 -37 -25 -64 18 -94 156 -85 156 10 0 40 -27
71 -67 79 -27 5 -37 1 -64 -25z"/>
<path d="M1695 1591 c-62 -26 -81 -110 -34 -156 14 -14 42 -28 62 -32 32 -5
41 -1 72 30 22 22 35 45 35 61 0 73 -70 123 -135 97z"/>
<path d="M1547 1200 c-53 -42 -24 -130 43 -130 40 0 70 31 70 73 0 61 -66 94
-113 57z"/>
<path d="M1305 724 c-18 -18 -16 -33 7 -47 35 -22 66 21 36 51 -16 16 -23 15
-43 -4z"/>
<path d="M1140 2390 c0 -5 4 -10 9 -10 6 0 13 5 16 10 3 6 -1 10 -9 10 -9 0
-16 -4 -16 -10z"/>
<path d="M1622 2177 c-58 -62 11 -152 87 -113 46 24 54 67 20 110 -27 34 -77
36 -107 3z"/>
<path d="M759 2143 c-9 -11 -10 -14 -2 -9 7 4 23 2 35 -5 23 -12 23 -12 4 10
-23 25 -20 25 -37 4z"/>
<path d="M919 2097 c-75 -50 -86 -142 -24 -204 39 -39 89 -50 138 -29 100 41
102 200 2 242 -48 20 -77 18 -116 -9z"/>
<path d="M1381 1914 c-85 -60 -39 -194 66 -194 96 0 138 142 57 195 -31 20
-93 19 -123 -1z"/>
<path d="M734 1666 c-33 -15 -44 -33 -44 -72 0 -38 16 -61 50 -73 37 -12 72
-1 94 31 22 31 20 62 -6 92 -30 32 -56 38 -94 22z"/>
<path d="M1082 1510 c-46 -29 -72 -76 -72 -134 0 -94 76 -164 168 -153 57 6
91 32 120 90 29 57 23 112 -15 158 -52 61 -137 78 -201 39z"/>
<path d="M1257 993 c-12 -11 -8 -23 8 -23 8 0 15 7 15 15 0 16 -12 20 -23 8z"/>
<path d="M1315 990 c4 -6 11 -8 16 -5 14 9 11 15 -7 15 -8 0 -12 -5 -9 -10z"/>
<path d="M1366 985 c4 -8 12 -15 20 -15 8 0 11 6 8 15 -4 8 -12 15 -20 15 -8
0 -11 -6 -8 -15z"/>
<path d="M1260 940 c0 -5 5 -10 10 -10 6 0 10 5 10 10 0 6 -4 10 -10 10 -5 0
-10 -4 -10 -10z"/>
<path d="M1315 940 c-3 -5 -1 -10 4 -10 6 0 11 5 11 10 0 6 -2 10 -4 10 -3 0
-8 -4 -11 -10z"/>
<path d="M1365 940 c-3 -5 1 -10 9 -10 9 0 16 5 16 10 0 6 -4 10 -9 10 -6 0
-13 -4 -16 -10z"/>
<path d="M1473 890 c-13 -5 -23 -11 -23 -12 -1 -2 -3 -19 -6 -39 -4 -31 -1
-40 18 -53 30 -21 54 -20 78 4 50 50 -2 126 -67 100z"/>
<path d="M1085 519 c-4 -11 -3 -25 2 -30 5 -5 107 -8 234 -7 l224 3 0 25 0 25
-227 3 c-223 2 -227 2 -233 -19z"/>
<path d="M1092 424 c-9 -7 -12 -18 -7 -32 6 -22 8 -22 233 -20 227 3 227 3
230 26 2 12 -3 24 -11 28 -29 11 -430 9 -445 -2z"/>
<path d="M1084 315 c-4 -8 -4 -22 0 -30 5 -13 37 -15 233 -13 l228 3 0 25 0
25 -228 3 c-196 2 -228 0 -233 -13z"/>
<path d="M1170 206 c0 -23 51 -78 87 -92 73 -31 158 -2 193 66 l20 40 -150 0
c-123 0 -150 -3 -150 -14z"/>
</g>
</svg>
